<?xml version="1.0" encoding="UTF-8"?>
<!DOCTYPE svg PUBLIC "-//W3C//DTD SVG 1.1//EN" "http://www.w3.org/Graphics/SVG/1.1/DTD/svg11.dtd">
<svg version="1.1" xmlns="http://www.w3.org/2000/svg" xmlns:xlink="http://www.w3.org/1999/xlink" x="0" y="0" width="500" height="500" viewBox="0, 0, 500, 500">
  <g id="Poo">
    <path d="M408.667,344.667 C387.925,367.046 353.769,355.335 310.667,360 C267.564,364.665 275.906,399.59 188.085,404.255 C154.863,406.019 112.856,400.86 90.487,390.059 C68.119,379.257 48.538,350.456 52.04,324.994 C55.542,299.532 84.572,296.602 99.951,298.377 C115.33,300.151 163.09,310.08 185.719,301.334 C161.474,300.459 114.739,284.772 114.739,284.772 C114.739,284.772 89.074,270.287 85.164,250.465 C81.254,230.644 90.355,209.285 118.518,196.16 C146.68,183.034 153.444,187.022 191.467,182.071 C229.49,177.119 212.802,113.185 225.815,103.583 C238.828,93.981 261.239,106.36 285.882,130.797 C310.525,155.234 320.58,204.92 291.218,224.215 C328.27,226.214 371.173,239.591 394,255.333 C413.333,268.667 434,317.333 408.667,344.667 z" fill="#754823"/>
  </g>
</svg>
